<svg preserveAspectRatio="none" overflow="visible" style="display: block;" width="82" height="78.2727" viewBox="0 0 82 78.2727" fill="none" xmlns="http://www.w3.org/2000/svg">
<g id="image" clip-path="url(#clip0_0_4)">
<path id="Vector" d="M0.349432 0.0195694C27.6098 -0.164931 54.8701 -0.150941 82.1305 0.0615138C82.1025 7.09488 81.562 47.3969 82.7958 51.6003L82.0475 55.1879L82.1752 76.4846C78.4954 75.6981 71.0269 76.2442 66.9139 76.191C48.0697 75.9478 29.2097 78.2345 10.3767 77.4472C-0.0848084 77.0092 3.8391 75.632 -0.0344655 71.1676C-0.507829 65.4043 -0.574925 60.5915 -0.0633573 54.8226L-0.547921 52.1576C-0.0410118 34.9283 -0.514364 16.9554 0.349432 0.0195694Z" fill="#FAF9F5"/>
<path id="Vector_2" d="M82.0475 55.1879C77.7547 55.2475 71.8888 55.9156 68.6983 53.1323L69.5546 51.8482C73.5158 50.2846 78.4498 51.1968 82.7958 51.6003L82.0475 55.1879Z" fill="#E2D6CF"/>
<path id="Vector_3" d="M-0.547921 52.1576C3.42256 51.7234 6.01208 51.1419 9.78315 52.3729L10.6702 53.506C8.24378 55.569 3.16632 54.9708 -0.0633573 54.8226L-0.547921 52.1576Z" fill="#E2D6CF"/>
<path id="Vector_4" d="M56.5539 48.175C57.3898 56.6331 54.3381 50.8316 52.9478 57.3161C54.886 60.899 56.265 62.0423 53.0661 65.0428L51.1661 64.9524C49.2223 63.2407 48.6213 62.4412 46.1017 61.7637C41.9234 64.097 45.5846 65.0111 41.0531 68.8493C38.6174 67.76 38.7609 66.3604 37.419 63.2257C33.2519 61.1384 33.3628 65.6531 27.5436 65.0511C26.0257 60.7359 28.6925 58.8592 27.7617 56.4645C26.417 53.0037 23.0187 50.8568 23.356 46.2666C27.2883 40.4838 31.8449 42.5897 37.925 40.2816C38.7366 39.9731 38.8345 35.7334 41.9467 34.563C43.8001 36.2123 44.376 39.6712 45.2137 42.381C49.1198 40.7913 49.337 39.9489 52.8369 40.59C54.8496 43.5252 55.7777 47.2218 56.5539 48.175Z" fill="#E2D6CF"/>
<path id="Vector_5" d="M45.2137 42.3809C49.1198 40.7913 49.337 39.9489 52.8369 40.59C54.8496 43.5252 55.7777 47.2218 56.5539 48.175C52.8108 49.2596 53.109 49.7768 49.7992 48.9698C47.5283 47.0195 46.6468 45.0003 45.2137 42.3809Z" fill="#EDE1DA"/>
<path id="Vector_6" d="M39.2063 45.5407C41.6868 46.2871 42.462 47.1714 44.3611 48.8357C45.4746 52.8527 45.2472 51.5118 43.7368 55.9072C39.729 55.3602 40.481 56.0516 37.829 53.6923C36.9177 50.7738 38.1487 48.4545 39.2063 45.5407Z" fill="#FAF9F5"/>
<path id="Vector_7" d="M-0.0344795 71.1676C3.83909 75.632 -0.0848226 77.0092 10.3767 77.4471C29.2097 78.2345 48.0697 75.9478 66.9138 76.191C71.0269 76.2441 78.4954 75.6981 82.1752 76.4846C81.7465 77.2561 81.9282 77.1452 81.3552 77.5794C78.9501 79.4021 7.4713 78.7004 0.657844 77.9979C-0.77902 75.7848 -0.263707 73.909 -0.0344795 71.1676Z" fill="#FAF9F5" fill-opacity="0.968627"/>
</g>
<defs>
<clipPath id="clip0_0_4">
<rect width="82" height="78.2727" fill="white"/>
</clipPath>
</defs>
</svg>
